HIERARCHY
ROOT hip
{
  OFFSET 0 0 0
  CHANNELS 6 Xposition Yposition Zposition Zrotation Yrotation Xrotation
  JOINT abdomen
  {
    OFFSET 0 20.6881 -0.73152
    CHANNELS 3 Zrotation Xrotation Yrotation
    JOINT chest
    {
      OFFSET 0 11.7043 -0.48768
      CHANNELS 3 Zrotation Xrotation Yrotation
      JOINT neck
      {
        OFFSET 0 22.1894 -2.19456
        CHANNELS 3 Zrotation Xrotation Yrotation
        JOINT head
        {
          OFFSET -0.24384 7.07133 1.2192
          CHANNELS 3 Zrotation Xrotation Yrotation
          JOINT leftEye
          {
            OFFSET 4.14528 8.04674 8.04672
            CHANNELS 3 Zrotation Xrotation Yrotation
            End Site
            {
              OFFSET 1 0 0
            }
          }
          JOINT rightEye
          {
            OFFSET -3.6576 8.04674 8.04672
            CHANNELS 3 Zrotation Xrotation Yrotation
            End Site
            {
              OFFSET 1 0 0
            }
          }
        }
      }
      JOINT rCollar
      {
        OFFSET -2.68224 19.2634 -4.8768
        CHANNELS 3 Zrotation Xrotation Yrotation
        JOINT rShldr
        {
          OFFSET -8.77824 -1.95073 1.46304
          CHANNELS 3 Zrotation Xrotation Yrotation
          JOINT rForeArm
          {
            OFFSET -28.1742 -1.7115 0.48768
            CHANNELS 3 Zrotation Xrotation Yrotation
            JOINT rHand
            {
              OFFSET -22.5879 0.773209 7.07136
              CHANNELS 3 Zrotation Xrotation Yrotation
              JOINT rThumb1
              {
                OFFSET -1.2192 -0.487915 3.41376
                CHANNELS 3 Zrotation Xrotation Yrotation
                JOINT rThumb2
                {
                  OFFSET -3.37035 -0.52449 3.41376
                  CHANNELS 3 Zrotation Xrotation Yrotation
                  End Site
                  {
                    OFFSET -1.78271 -1.18214 1.43049
                  }
                }
              }
              JOINT rIndex1
              {
                OFFSET -7.75947 0.938293 5.60832
                CHANNELS 3 Zrotation Xrotation Yrotation
                JOINT rIndex2
                {
                  OFFSET -2.54057 -0.884171 1.56538
                  CHANNELS 3 Zrotation Xrotation Yrotation
                  End Site
                  {
                    OFFSET -1.62519 -0.234802 1.16502
                  }
                }
              }
              JOINT rMid1
              {
                OFFSET -8.24714 1.18213 3.41376
                CHANNELS 3 Zrotation Xrotation Yrotation
                JOINT rMid2
                {
                  OFFSET -3.10165 -0.590103 1.0647
                  CHANNELS 3 Zrotation Xrotation Yrotation
                  End Site
                  {
                    OFFSET -2.48547 -0.328903 0.83742
                  }
                }
              }
              JOINT rRing1
              {
                OFFSET -8.82822 0.546677 1.51678
                CHANNELS 3 Zrotation Xrotation Yrotation
                JOINT rRing2
                {
                  OFFSET -2.60934 -0.819778 -0.0198488
                  CHANNELS 3 Zrotation Xrotation Yrotation
                  End Site
                  {
                    OFFSET -2.33842 -0.294052 0.168128
                  }
                }
              }
              JOINT rPinky1
              {
                OFFSET -8.27202 -0.0477905 -0.4584
                CHANNELS 3 Zrotation Xrotation Yrotation
                JOINT rPinky2
                {
                  OFFSET -1.82734 -0.647385 -0.700984
                  CHANNELS 3 Zrotation Xrotation Yrotation
                  End Site
                  {
                    OFFSET -1.69225 -0.51767 -0.607171
                  }
                }
              }
            }
          }
        }
      }
      JOINT lCollar
      {
        OFFSET 2.68224 19.2634 -4.8768
        CHANNELS 3 Zrotation Xrotation Yrotation
        JOINT lShldr
        {
          OFFSET 8.77824 -1.95073 1.46304
          CHANNELS 3 Zrotation Xrotation Yrotation
          JOINT lForeArm
          {
            OFFSET 28.1742 -1.7115 0.48768
            CHANNELS 3 Zrotation Xrotation Yrotation
            JOINT lHand
            {
              OFFSET 22.5879 0.773209 7.07136
              CHANNELS 3 Zrotation Xrotation Yrotation
              JOINT lThumb1
              {
                OFFSET 1.2192 -0.487915 3.41376
                CHANNELS 3 Zrotation Xrotation Yrotation
                JOINT lThumb2
                {
                  OFFSET 3.37035 -0.52449 3.41376
                  CHANNELS 3 Zrotation Xrotation Yrotation
                  End Site
                  {
                    OFFSET 1.78271 -1.18214 1.43049
                  }
                }
              }
              JOINT lIndex1
              {
                OFFSET 7.75947 0.938293 5.60832
                CHANNELS 3 Zrotation Xrotation Yrotation
                JOINT lIndex2
                {
                  OFFSET 2.54057 -0.884171 1.56538
                  CHANNELS 3 Zrotation Xrotation Yrotation
                  End Site
                  {
                    OFFSET 1.62519 -0.234802 1.16502
                  }
                }
              }
              JOINT lMid1
              {
                OFFSET 8.24714 1.18213 3.41376
                CHANNELS 3 Zrotation Xrotation Yrotation
                JOINT lMid2
                {
                  OFFSET 3.10165 -0.590103 1.0647
                  CHANNELS 3 Zrotation Xrotation Yrotation
                  End Site
                  {
                    OFFSET 2.48547 -0.328903 0.83742
                  }
                }
              }
              JOINT lRing1
              {
                OFFSET 8.82822 0.546677 1.51678
                CHANNELS 3 Zrotation Xrotation Yrotation
                JOINT lRing2
                {
                  OFFSET 2.60934 -0.819778 -0.0198488
                  CHANNELS 3 Zrotation Xrotation Yrotation
                  End Site
                  {
                    OFFSET 2.33842 -0.294052 0.168128
                  }
                }
              }
              JOINT lPinky1
              {
                OFFSET 8.27202 -0.0477905 -0.4584
                CHANNELS 3 Zrotation Xrotation Yrotation
                JOINT lPinky2
                {
                  OFFSET 1.82734 -0.647385 -0.700984
                  CHANNELS 3 Zrotation Xrotation Yrotation
                  End Site
                  {
                    OFFSET 1.69225 -0.51767 -0.607171
                  }
                }
              }
            }
          }
        }
      }
    }
  }
  JOINT rButtock
  {
    OFFSET -8.77824 4.35084 1.2192
    CHANNELS 3 Zrotation Xrotation Yrotation
    JOINT rThigh
    {
      OFFSET 0 -1.70687 -2.19456
      CHANNELS 3 Zrotation Xrotation Yrotation
      JOINT rShin
      {
        OFFSET 0 -36.8199 0.73152
        CHANNELS 3 Zrotation Xrotation Yrotation
        JOINT rFoot
        {
          OFFSET 0.73152 -45.1104 -5.12064
          CHANNELS 3 Zrotation Xrotation Yrotation
          End Site
          {
            OFFSET -1.1221 -3.69964 12.103
          }
        }
      }
    }
  }
  JOINT lButtock
  {
    OFFSET 8.77824 4.35084 1.2192
    CHANNELS 3 Zrotation Xrotation Yrotation
    JOINT lThigh
    {
      OFFSET 0 -1.70687 -2.19456
      CHANNELS 3 Zrotation Xrotation Yrotation
      JOINT lShin
      {
        OFFSET 0 -36.8199 0.73152
        CHANNELS 3 Zrotation Xrotation Yrotation
        JOINT lFoot
        {
          OFFSET -0.73152 -45.1104 -5.12064
          CHANNELS 3 Zrotation Xrotation Yrotation
          End Site
          {
            OFFSET 1.1221 -3.69964 12.103
          }
        }
      }
    }
  }
}
MOTION
Frames:	4
Frame Time:	0.00833333
29.517100000000003 78.8594 -68.5757 -0.0 -0.0 -0.0 -0.0 0.0 -0.0 0.0 -0.0 -0.0 -8.109464 10.77652 -83.526925 11.611201 6.85153 83.595634 -0.0 -0.0 0.0 -0.0 -0.0 0.0 -153.591033 -75.693447 -178.260991 -175.117094 -15.580135 159.008717 2.628006 68.228115 -33.420524 169.455335 -19.840379 143.384305 -171.818129 -9.500219 89.947791 0.570473 -54.643806 8.433466 -148.886119 -12.609784 120.244776 -166.799703 -45.508094 117.333108 -82.840589 61.110826 74.532293 90.86336 -81.458107 61.716329 -0.014868 -1.323148 -0.415899 0.661335 -8.173732 -0.741748 -0.344362 -0.890269 -0.318422 -139.772833 -14.92957 -135.076416 129.706525 55.102355 -133.553282 151.92539 9.052671 -173.968272 11.806636 74.35992 -14.119623 0.375769 1.201638 0.03719 93.743665 37.963835 -53.548561 144.635737 -25.652721 -79.046601 140.684449 1.505836 -116.183204 151.404912 -11.513595 -123.706785 -68.983989 -80.15399 -40.578188 163.873845 -5.289579 -140.122074 0.021291 -1.725169 0.542387 16.751283 61.806163 -19.31937 145.078401 11.767423 141.738648 124.391039 -29.366903 124.439813 0.0 0.0 -0.0 -0.0 -0.0 -0.0 -4.919407 3.500227 -54.588129 -45.568347 -55.150771 52.145598 0.0 0.0 -0.0 -0.0 -0.0 -0.0 4.919407 3.500227 54.588129 -157.58261 -22.012477 50.098225
29.3794 78.7315 -68.7691 -0.0 -0.0 -0.0 -0.0 0.0 -0.0 0.0 -0.0 -0.0 -8.127505 9.324006 -75.254595 11.06814 5.502965 75.384894 0.0 -0.0 -0.0 0.0 -0.0 -0.0 -9.651699 34.836178 11.199233 7.308425 14.811795 -2.919111 165.661461 1.69051 155.504858 -164.38396 48.497172 138.164597 4.654743 -4.638298 -0.530228 -130.486512 -24.974743 116.720667 -14.228542 19.203392 9.559881 -107.838108 49.346043 75.586652 -0.219913 0.63841 0.122732 -175.111661 -30.845135 144.145057 -70.379629 -72.130165 -87.279981 -45.548434 71.569154 63.454475 32.017443 83.320556 6.228541 -16.676331 -29.610218 -18.335379 155.716846 -4.925325 -162.135615 155.826199 -4.270279 -161.778275 -1.707989 -6.719875 -0.219387 1.671611 5.353315 0.105177 171.603563 -9.286185 -89.949897 103.476934 13.212814 -44.086481 50.386399 40.826202 -40.02487 3.563587 11.701468 9.113735 169.08961 -33.247392 -145.374931 84.162298 62.432758 -78.699761 0.014868 -1.323148 0.415899 165.60125 -0.640013 -171.607461 144.260424 9.237701 141.009589 12.606643 -30.832314 17.068732 0.0 0.0 -0.0 -0.0 -0.0 -0.0 -4.919407 3.500227 -54.588129 -45.568347 -55.150771 52.145598 0.0 0.0 -0.0 -0.0 -0.0 -0.0 4.919407 3.500227 54.588129 -157.58261 -22.012477 50.098225
29.036100000000005 78.7179 -68.95 0.0 -0.0 -0.0 -0.0 -4.771896 -180.0 0.0 -4.771896 180.0 11.990363 8.482615 93.076228 -7.823596 12.42674 -93.115607 0.0 -0.0 -0.0 0.0 -0.0 -0.0 -155.716846 -4.925325 162.135615 -160.046212 -17.684877 161.825643 -4.023483 -0.895177 -2.013454 4.666526 -14.358602 1.083711 71.831195 -48.263725 25.791675 -136.994515 13.992175 105.273652 -14.228542 19.203392 9.559881 72.400896 -63.745787 33.344528 0.047552 -0.138632 -0.026316 7.47375 -22.924647 -1.535668 -145.118942 0.185466 -179.186604 -67.992127 -77.904265 -99.860422 0.098846 0.258289 0.091255 63.202151 86.030393 -27.320517 48.785873 -86.435055 70.448757 121.918892 63.671442 -122.948523 177.905693 34.601294 -145.344652 -170.720163 -16.343128 -143.898131 85.829417 38.630721 -47.955432 -1.78624 -16.972292 -25.078075 145.521835 -6.585001 -118.766503 151.10344 -14.027504 -122.671313 154.142656 11.63468 -139.428942 38.901346 59.379111 -35.856452 72.133176 72.974596 -89.989695 79.3761 -72.175546 96.33963 154.16448 45.105972 148.907641 -61.961211 81.156475 23.487701 -180.0 75.749642 -0.0 -180.0 75.749642 -0.0 2.948002 0.251893 26.025665 -63.756302 18.759793 6.910059 -180.0 75.749642 -0.0 -180.0 75.749642 -0.0 -2.948002 0.251893 -26.025665 -62.27174 -41.072681 25.341805
28.5054 78.7287 -68.9426 -0.0 0.0 -0.0 -0.0 0.0 -0.0 0.0 -0.0 0.0 -7.715331 12.806222 -95.379732 12.039734 8.873494 95.309256 -0.0 0.0 -0.0 -0.0 0.0 -0.0 3.268835 -26.755826 -5.241683 19.456165 -82.210458 18.443146 -165.970707 77.459408 169.038817 -2.247377 7.193396 -0.10521 6.463714 -6.452652 -0.634888 -138.961436 -42.053926 122.661262 5.741524 -9.851176 -2.890594 131.378488 -55.648678 79.303076 -8.41658 20.880424 5.645309 -42.941736 59.13296 33.930564 -71.925376 72.974006 89.771887 -135.499054 -57.132472 -151.595568 -25.537984 -38.087442 -24.598474 1.325116 -1.045 1.168572 80.1661 68.371792 -83.260848 155.991316 -7.170251 -179.492702 159.03814 25.310157 -155.272013 -38.128463 -61.34834 -25.685803 171.706035 -9.388422 -89.948992 139.70796 9.345095 -70.606733 123.870113 22.788406 -104.455499 -8.805493 12.633001 13.624692 153.32078 13.628946 -138.862343 160.006413 -4.191775 -144.137952 145.121957 1.974539 179.748654 145.424085 2.063325 179.108618 126.797849 -26.619602 124.512652 156.561494 54.394904 150.188715 -180.0 75.749642 -0.0 -180.0 73.473292 -180.0 -4.746839 -3.419817 -136.635003 154.282889 -62.649128 40.647363 -180.0 75.749642 -0.0 -180.0 73.473292 -180.0 -4.115687 -4.550912 -138.343029 -97.802643 17.864309 15.307146
